# xmcd
#
# Track frame offsets:
#   150
#   16563
#   33869
#   49447
#   64104
#   78299
#   96481
#   113750
#   127124
#   141386
#   154407
#   167609
#   183195
#   197631
#   217292
#
# Disc length: 3084 seconds
#
# Revision: 0
# Processed by: cddbd v1.5.2PL0 Copyright (c) Steve Scherf et al.
# Submitted via: uFREEDB 1.6.0
#
DISCID=d50c0a0f
DTITLE=Alison Krauss and Union Station - The best of...
DYEAR=1900
DGENRE=Country
TTITLE0=Baby of mine
TTITLE1=Baby, now that I've found you
TTITLE2=Borderline
TTITLE3=Crazy as me
TTITLE4=Deeper than crying
TTITLE5=Ghost in this house
TTITLE6=If I didn't know any better
TTITLE7=Jewels
TTITLE8=My poor old heart
TTITLE9=Restless
TTITLE10=Stars
TTITLE11=Stay
TTITLE12=The lucky one
TTITLE13=Whisky Lullaby
TTITLE14=Wouldn't be so bad
EXTD=
EXTT0=
EXTT1=
EXTT2=
EXTT3=
EXTT4=
EXTT5=
EXTT6=
EXTT7=
EXTT8=
EXTT9=
EXTT10=
EXTT11=
EXTT12=
EXTT13=
EXTT14=
PLAYORDER=
